<?xml version="1.0" encoding="utf-8"?>
<!-- Generator: Adobe Illustrator 23.0.1, SVG Export Plug-In . SVG Version: 6.00 Build 0)  -->
<svg version="1.1" id="Layer_1" xmlns="http://www.w3.org/2000/svg" xmlns:xlink="http://www.w3.org/1999/xlink" x="0px" y="0px"
	 viewBox="0 0 512 512" style="enable-background:new 0 0 512 512;" xml:space="preserve">
<style type="text/css">
	.st0{fill:#010101;}
</style>
<title>Voice</title>
<g>
	<path class="st0" d="M256,401.8h2.2c36.9-0.7,72-16.2,97.3-43c24.4-25.8,37.2-58.6,35.8-92.5c-1.4-36.1-18.7-70.4-47.3-94
		c-1.2-0.9-2.1-2.2-2.4-3.6c-3.4-17.8-11.6-59.9-33.5-74.4V45.9c0-8.3-3.3-16.3-9.2-22.1l-8.6-8.6C284.4,9.3,276.5,6,268.2,6h-24.4
		c-8.3,0-16.2,3.3-22.1,9.2l-8.6,8.6c-5.9,5.8-9.2,13.8-9.2,22.1v48.4c-21.9,14.5-30.1,56.6-33.5,74.4c-0.3,1.4-1.2,2.7-2.4,3.5
		c-30.1,24.9-47.4,61-47.4,99.1c0,34.4,12.8,66,38.6,91.3C185,387.9,219.2,401.8,256,401.8z M227.8,38.5l8.6-8.6
		c2-2,4.6-3.1,7.4-3.1h24.4c2.8,0,5.4,1.1,7.4,3.1l8.6,8.6c1.9,2,3,4.6,3,7.4v43.4h-62.4V45.9C224.8,43.1,225.9,40.5,227.8,38.5z
		 M181.3,188.3c4.9-3.9,8.3-9.5,9.6-15.7c10.4-54.3,22.9-62.4,29.4-62.4h71.4c6.5,0,19,8.1,29.4,62.4c1.3,6.2,4.7,11.8,9.6,15.7
		c24.1,19.9,38.6,48.6,39.8,78.8c1.1,28.3-9.6,55.7-30.1,77.4c-21.5,22.7-51.2,35.8-82.5,36.5c-32.2,0.5-61.8-11.3-84.1-33.3
		c-20.7-20-32.4-47.6-32.4-76.4C141.4,239.5,155.9,209.2,181.3,188.3z"/>
	<path class="st0" d="M256,422.7c-5.7,0-10.4,4.7-10.4,10.4v62.5c0,5.7,4.7,10.4,10.4,10.4s10.4-4.7,10.4-10.4v-62.5c0,0,0,0,0,0
		C266.4,427.3,261.7,422.7,256,422.7z"/>
	<path class="st0" d="M178,401.8c-5-2.9-11.4-1.2-14.2,3.8l-31.3,54.2c0,0.1-0.1,0.1-0.1,0.2c-2.8,5-1.1,11.2,3.9,14
		c1.6,0.9,3.4,1.4,5.2,1.4c3.7,0,7.1-2,9-5.2l31.3-54.1C184.6,411,182.9,404.6,178,401.8z"/>
	<path class="st0" d="M106.5,340.7L52.3,372c-0.1,0-0.1,0.1-0.2,0.1c-4.9,2.9-6.5,9.2-3.6,14.1c1.9,3.2,5.3,5.2,9,5.2
		c1.8,0,3.6-0.5,5.2-1.4l54.2-31.2c5-2.9,6.7-9.3,3.8-14.2S111.5,337.8,106.5,340.7z"/>
	<path class="st0" d="M348.3,405.5c-2.9-5-9.3-6.6-14.2-3.8c-5,2.9-6.6,9.3-3.8,14.2l31.3,54.1c1.9,3.2,5.3,5.2,9,5.2
		c1.8,0,3.6-0.5,5.2-1.4c0.1,0,0.1-0.1,0.2-0.1c4.9-2.9,6.5-9.2,3.6-14.1L348.3,405.5z"/>
	<path class="st0" d="M459.7,372l-54.2-31.3c-5-2.9-11.4-1.1-14.2,3.8s-1.1,11.4,3.8,14.2l54.2,31.2c1.6,0.9,3.4,1.4,5.2,1.4
		c3.7,0,7.1-2,9-5.2c0-0.1,0.1-0.1,0.1-0.2C466.4,381.1,464.7,374.8,459.7,372z"/>
</g>
</svg>
